<svg xmlns="http://www.w3.org/2000/svg" width="1920" height="1080"><path d="M-181,-186L8,-212L174,-244Z" fill="#343a4c" stroke="#343a4c" stroke-width="1.51"/><path d="M174,-244L401,-220L871,-261Z" fill="#3e465b" stroke="#3e465b" stroke-width="1.51"/><path d="M871,-261L1068,-253L1734,-231Z" fill="#6a6e7a" stroke="#6a6e7a" stroke-width="1.51"/><path d="M1068,-253L1383,-220L1734,-231Z" fill="#757882" stroke="#757882" stroke-width="1.51"/><path d="M1303,1285L1139,1312L1762,1265Z" fill="#dcdcdc" stroke="#dcdcdc" stroke-width="1.51"/><path d="M1483,1243L1303,1285L1762,1265Z" fill="#dfdfdf" stroke="#dfdfdf" stroke-width="1.51"/><path d="M1962,667L1989,887L2030,638Z" fill="#ced1d3" stroke="#ced1d3" stroke-width="1.51"/><path d="M2083,-87L1911,-40L2099,114Z" fill="#9599a5" stroke="#9599a5" stroke-width="1.51"/><path d="M2083,-87L2099,114L2104,-157Z" fill="#969aa5" stroke="#969aa5" stroke-width="1.51"/><path d="M2030,638L1989,887L2125,874Z" fill="#d9d9da" stroke="#d9d9da" stroke-width="1.51"/><path d="M2090,520L2030,638L2125,874Z" fill="#cdcfd2" stroke="#cdcfd2" stroke-width="1.51"/><path d="M2047,948L2048,1168L2125,874Z" fill="#e6e6e6" stroke="#e6e6e6" stroke-width="1.51"/><path d="M2099,114L1975,203L2126,272Z" fill="#9ea3b0" stroke="#9ea3b0" stroke-width="1.51"/><path d="M1975,203L2091,410L2126,272Z" fill="#a3a9b6" stroke="#a3a9b6" stroke-width="1.51"/><path d="M2090,520L2125,874L2126,272Z" fill="#c1c4ca" stroke="#c1c4ca" stroke-width="1.51"/><path d="M2091,410L2090,520L2126,272Z" fill="#b0b5bf" stroke="#b0b5bf" stroke-width="1.51"/><path d="M2104,-157L2099,114L2126,272Z" fill="#9b9fac" stroke="#9b9fac" stroke-width="1.51"/><path d="M1982,1270L1762,1265L2134,1287Z" fill="#f1f1f1" stroke="#f1f1f1" stroke-width="1.51"/><path d="M1762,1265L1139,1312L2134,1287Z" fill="#e7e7e7" stroke="#e7e7e7" stroke-width="1.51"/><path d="M2048,1168L1982,1270L2134,1287Z" fill="#f3f4f4" stroke="#f3f4f4" stroke-width="1.51"/><path d="M2125,874L2048,1168L2134,1287Z" fill="#ededed" stroke="#ededed" stroke-width="1.51"/><path d="M2126,272L2125,874L2134,1287Z" fill="#dddddd" stroke="#dddddd" stroke-width="1.51"/><path d="M2047,948L1908,1087L2048,1168Z" fill="#e7e7e7" stroke="#e7e7e7" stroke-width="1.51"/><path d="M1975,203L1903,378L2091,410Z" fill="#a4aab6" stroke="#a4aab6" stroke-width="1.51"/><path d="M1911,-40L1918,107L2099,114Z" fill="#959aa6" stroke="#959aa6" stroke-width="1.51"/><path d="M1989,887L2047,948L2125,874Z" fill="#dfe0e0" stroke="#dfe0e0" stroke-width="1.51"/><path d="M1981,487L2090,520L2091,410Z" fill="#b5bac2" stroke="#b5bac2" stroke-width="1.51"/><path d="M1950,-214L2083,-87L2104,-157Z" fill="#90939e" stroke="#90939e" stroke-width="1.51"/><path d="M1981,487L2030,638L2090,520Z" fill="#bdc0c7" stroke="#bdc0c7" stroke-width="1.51"/><path d="M1918,107L1975,203L2099,114Z" fill="#999fab" stroke="#999fab" stroke-width="1.51"/><path d="M1903,378L1981,487L2091,410Z" fill="#aeb3bc" stroke="#aeb3bc" stroke-width="1.51"/><path d="M1950,-214L1911,-40L2083,-87Z" fill="#8f929d" stroke="#8f929d" stroke-width="1.51"/><path d="M107,1299L34,1307L591,1321Z" fill="#989da9" stroke="#989da9" stroke-width="1.51"/><path d="M1981,487L1962,667L2030,638Z" fill="#c1c3c9" stroke="#c1c3c9" stroke-width="1.51"/><path d="M1989,887L1883,985L2047,948Z" fill="#dedfdf" stroke="#dedfdf" stroke-width="1.51"/><path d="M1883,985L1908,1087L2047,948Z" fill="#e1e2e2" stroke="#e1e2e2" stroke-width="1.51"/><path d="M1908,1087L1982,1270L2048,1168Z" fill="#ececec" stroke="#ececec" stroke-width="1.51"/><path d="M1962,667L1769,835L1989,887Z" fill="#d2d3d4" stroke="#d2d3d4" stroke-width="1.51"/><path d="M1658,1233L1483,1243L1762,1265Z" fill="#e3e3e3" stroke="#e3e3e3" stroke-width="1.51"/><path d="M1766,680L1769,835L1962,667Z" fill="#c8cacc" stroke="#c8cacc" stroke-width="1.51"/><path d="M1783,525L1962,667L1981,487Z" fill="#b9bcc3" stroke="#b9bcc3" stroke-width="1.51"/><path d="M1908,1087L1809,1165L1982,1270Z" fill="#e9e9e9" stroke="#e9e9e9" stroke-width="1.51"/><path d="M1769,835L1883,985L1989,887Z" fill="#d8d9d9" stroke="#d8d9d9" stroke-width="1.51"/><path d="M1739,255L1903,378L1975,203Z" fill="#9ba1ae" stroke="#9ba1ae" stroke-width="1.51"/><path d="M1809,1165L1762,1265L1982,1270Z" fill="#eaebeb" stroke="#eaebeb" stroke-width="1.51"/><path d="M1903,378L1783,525L1981,487Z" fill="#afb3bb" stroke="#afb3bb" stroke-width="1.51"/><path d="M1783,525L1766,680L1962,667Z" fill="#bdc0c5" stroke="#bdc0c5" stroke-width="1.51"/><path d="M1918,107L1739,255L1975,203Z" fill="#969ca9" stroke="#969ca9" stroke-width="1.51"/><path d="M1769,-56L1911,-40L1950,-214Z" fill="#8c8f9a" stroke="#8c8f9a" stroke-width="1.51"/><path d="M1030,1291L591,1321L1139,1312Z" fill="#babec6" stroke="#babec6" stroke-width="1.51"/><path d="M1383,-220L1596,-189L1734,-231Z" fill="#7d7f89" stroke="#7d7f89" stroke-width="1.51"/><path d="M1767,92L1739,255L1918,107Z" fill="#9298a5" stroke="#9298a5" stroke-width="1.51"/><path d="M1734,-231L1769,-56L1950,-214Z" fill="#878a95" stroke="#878a95" stroke-width="1.51"/><path d="M1769,835L1771,978L1883,985Z" fill="#d7d8d8" stroke="#d7d8d8" stroke-width="1.51"/><path d="M1739,413L1783,525L1903,378Z" fill="#a9aeb7" stroke="#a9aeb7" stroke-width="1.51"/><path d="M1769,-56L1767,92L1911,-40Z" fill="#8d919d" stroke="#8d919d" stroke-width="1.51"/><path d="M1911,-40L1767,92L1918,107Z" fill="#9196a2" stroke="#9196a2" stroke-width="1.51"/><path d="M1739,255L1739,413L1903,378Z" fill="#9fa4b0" stroke="#9fa4b0" stroke-width="1.51"/><path d="M1883,985L1771,978L1908,1087Z" fill="#dedfdf" stroke="#dedfdf" stroke-width="1.51"/><path d="M1771,978L1809,1165L1908,1087Z" fill="#e0e1e1" stroke="#e0e1e1" stroke-width="1.51"/><path d="M1658,1233L1762,1265L1809,1165Z" fill="#e5e6e6" stroke="#e5e6e6" stroke-width="1.51"/><path d="M1656,1140L1658,1233L1809,1165Z" fill="#e1e2e2" stroke="#e1e2e2" stroke-width="1.51"/><path d="M1771,978L1656,1140L1809,1165Z" fill="#dedfdf" stroke="#dedfdf" stroke-width="1.51"/><path d="M1632,373L1739,413L1739,255Z" fill="#9ba1ac" stroke="#9ba1ac" stroke-width="1.51"/><path d="M1631,269L1739,255L1767,92Z" fill="#9197a3" stroke="#9197a3" stroke-width="1.51"/><path d="M1607,51L1631,269L1767,92Z" fill="#8d929f" stroke="#8d929f" stroke-width="1.51"/><path d="M1766,680L1591,708L1769,835Z" fill="#c4c6c8" stroke="#c4c6c8" stroke-width="1.51"/><path d="M1591,708L1616,861L1769,835Z" fill="#c9caca" stroke="#c9caca" stroke-width="1.51"/><path d="M1616,861L1624,959L1769,835Z" fill="#cfd0d0" stroke="#cfd0d0" stroke-width="1.51"/><path d="M1734,-231L1596,-189L1769,-56Z" fill="#838690" stroke="#838690" stroke-width="1.51"/><path d="M1596,-189L1585,-68L1769,-56Z" fill="#838691" stroke="#838691" stroke-width="1.51"/><path d="M1607,51L1767,92L1769,-56Z" fill="#8a8f9b" stroke="#8a8f9b" stroke-width="1.51"/><path d="M1769,835L1624,959L1771,978Z" fill="#d3d4d4" stroke="#d3d4d4" stroke-width="1.51"/><path d="M1624,959L1656,1140L1771,978Z" fill="#d7d8d8" stroke="#d7d8d8" stroke-width="1.51"/><path d="M1591,535L1766,680L1783,525Z" fill="#b4b7bd" stroke="#b4b7bd" stroke-width="1.51"/><path d="M1739,413L1591,535L1783,525Z" fill="#aaaeb6" stroke="#aaaeb6" stroke-width="1.51"/><path d="M1631,269L1632,373L1739,255Z" fill="#959ba7" stroke="#959ba7" stroke-width="1.51"/><path d="M1591,535L1591,708L1766,680Z" fill="#b8babf" stroke="#b8babf" stroke-width="1.51"/><path d="M1585,-68L1607,51L1769,-56Z" fill="#868a96" stroke="#868a96" stroke-width="1.51"/><path d="M1632,373L1591,535L1739,413Z" fill="#a3a8b1" stroke="#a3a8b1" stroke-width="1.51"/><path d="M1591,708L1540,796L1616,861Z" fill="#c4c6c6" stroke="#c4c6c6" stroke-width="1.51"/><path d="M1607,51L1507,128L1631,269Z" fill="#8a8f9c" stroke="#8a8f9c" stroke-width="1.51"/><path d="M1495,377L1591,535L1632,373Z" fill="#9fa3ad" stroke="#9fa3ad" stroke-width="1.51"/><path d="M1624,959L1526,934L1656,1140Z" fill="#d3d4d4" stroke="#d3d4d4" stroke-width="1.51"/><path d="M1526,934L1429,1172L1656,1140Z" fill="#d5d6d6" stroke="#d5d6d6" stroke-width="1.51"/><path d="M1656,1140L1483,1243L1658,1233Z" fill="#dfdfdf" stroke="#dfdfdf" stroke-width="1.51"/><path d="M1429,1172L1483,1243L1656,1140Z" fill="#dbdbdb" stroke="#dbdbdb" stroke-width="1.51"/><path d="M1539,738L1540,796L1591,708Z" fill="#bfc1c2" stroke="#bfc1c2" stroke-width="1.51"/><path d="M1471,594L1591,708L1591,535Z" fill="#b1b4b9" stroke="#b1b4b9" stroke-width="1.51"/><path d="M1383,-220L1472,-156L1596,-189Z" fill="#7a7d88" stroke="#7a7d88" stroke-width="1.51"/><path d="M1616,861L1526,934L1624,959Z" fill="#cecfcf" stroke="#cecfcf" stroke-width="1.51"/><path d="M1507,128L1431,258L1631,269Z" fill="#8a919d" stroke="#8a919d" stroke-width="1.51"/><path d="M1631,269L1495,377L1632,373Z" fill="#969ca7" stroke="#969ca7" stroke-width="1.51"/><path d="M1431,258L1495,377L1631,269Z" fill="#8f96a2" stroke="#8f96a2" stroke-width="1.51"/><path d="M1382,1002L1429,1172L1526,934Z" fill="#cfd0d0" stroke="#cfd0d0" stroke-width="1.51"/><path d="M1472,-156L1585,-68L1596,-189Z" fill="#7f828c" stroke="#7f828c" stroke-width="1.51"/><path d="M1585,-68L1470,-62L1607,51Z" fill="#838792" stroke="#838792" stroke-width="1.51"/><path d="M1540,796L1526,934L1616,861Z" fill="#cacaca" stroke="#cacaca" stroke-width="1.51"/><path d="M1471,594L1539,738L1591,708Z" fill="#b8babd" stroke="#b8babd" stroke-width="1.51"/><path d="M1470,-62L1507,128L1607,51Z" fill="#848994" stroke="#848994" stroke-width="1.51"/><path d="M1472,-156L1470,-62L1585,-68Z" fill="#7e828d" stroke="#7e828d" stroke-width="1.51"/><path d="M1495,377L1471,594L1591,535Z" fill="#a4a8b0" stroke="#a4a8b0" stroke-width="1.51"/><path d="M1388,418L1471,594L1495,377Z" fill="#9da2ab" stroke="#9da2ab" stroke-width="1.51"/><path d="M1470,-62L1371,143L1507,128Z" fill="#828793" stroke="#828793" stroke-width="1.51"/><path d="M1471,594L1302,742L1539,738Z" fill="#b5b7ba" stroke="#b5b7ba" stroke-width="1.51"/><path d="M1539,738L1302,742L1540,796Z" fill="#bdbec0" stroke="#bdbec0" stroke-width="1.51"/><path d="M1302,742L1316,833L1540,796Z" fill="#bdbebf" stroke="#bdbebf" stroke-width="1.51"/><path d="M1316,833L1526,934L1540,796Z" fill="#c5c6c6" stroke="#c5c6c6" stroke-width="1.51"/><path d="M1316,-18L1371,143L1470,-62Z" fill="#7e838f" stroke="#7e838f" stroke-width="1.51"/><path d="M1316,833L1382,1002L1526,934Z" fill="#c7c8c8" stroke="#c7c8c8" stroke-width="1.51"/><path d="M1388,418L1308,537L1471,594Z" fill="#a1a5ac" stroke="#a1a5ac" stroke-width="1.51"/><path d="M1371,143L1431,258L1507,128Z" fill="#858c98" stroke="#858c98" stroke-width="1.51"/><path d="M1382,1002L1328,1113L1429,1172Z" fill="#d0d1d1" stroke="#d0d1d1" stroke-width="1.51"/><path d="M1431,258L1388,418L1495,377Z" fill="#9298a2" stroke="#9298a2" stroke-width="1.51"/><path d="M1429,1172L1303,1285L1483,1243Z" fill="#d9d9d9" stroke="#d9d9d9" stroke-width="1.51"/><path d="M1308,537L1302,742L1471,594Z" fill="#abaeb2" stroke="#abaeb2" stroke-width="1.51"/><path d="M1316,-18L1470,-62L1472,-156Z" fill="#7c808b" stroke="#7c808b" stroke-width="1.51"/><path d="M1383,-220L1316,-18L1472,-156Z" fill="#797c87" stroke="#797c87" stroke-width="1.51"/><path d="M1068,-253L1218,-172L1383,-220Z" fill="#6b6f7b" stroke="#6b6f7b" stroke-width="1.51"/><path d="M1328,1113L1303,1285L1429,1172Z" fill="#d4d5d5" stroke="#d4d5d5" stroke-width="1.51"/><path d="M1312,266L1388,418L1431,258Z" fill="#8c929d" stroke="#8c929d" stroke-width="1.51"/><path d="M1371,143L1312,266L1431,258Z" fill="#858b98" stroke="#858b98" stroke-width="1.51"/><path d="M1218,-172L1316,-18L1383,-220Z" fill="#747783" stroke="#747783" stroke-width="1.51"/><path d="M706,1278L591,1321L1030,1291Z" fill="#afb4bf" stroke="#afb4bf" stroke-width="1.51"/><path d="M1230,1143L1303,1285L1328,1113Z" fill="#cecfd1" stroke="#cecfd1" stroke-width="1.51"/><path d="M1316,-18L1185,77L1371,143Z" fill="#7a808c" stroke="#7a808c" stroke-width="1.51"/><path d="M1316,833L1220,985L1382,1002Z" fill="#c2c3c4" stroke="#c2c3c4" stroke-width="1.51"/><path d="M1312,266L1203,399L1388,418Z" fill="#8b929e" stroke="#8b929e" stroke-width="1.51"/><path d="M1203,399L1308,537L1388,418Z" fill="#959aa4" stroke="#959aa4" stroke-width="1.51"/><path d="M1220,985L1328,1113L1382,1002Z" fill="#c8c9ca" stroke="#c8c9ca" stroke-width="1.51"/><path d="M1202,560L1302,742L1308,537Z" fill="#a3a7ad" stroke="#a3a7ad" stroke-width="1.51"/><path d="M1191,209L1312,266L1371,143Z" fill="#7f8693" stroke="#7f8693" stroke-width="1.51"/><path d="M1185,77L1191,209L1371,143Z" fill="#7a818e" stroke="#7a818e" stroke-width="1.51"/><path d="M1202,560L1184,727L1302,742Z" fill="#a7aab0" stroke="#a7aab0" stroke-width="1.51"/><path d="M1203,399L1202,560L1308,537Z" fill="#959aa4" stroke="#959aa4" stroke-width="1.51"/><path d="M1218,-172L1162,-75L1316,-18Z" fill="#707582" stroke="#707582" stroke-width="1.51"/><path d="M1302,742L1210,787L1316,833Z" fill="#b6b8ba" stroke="#b6b8ba" stroke-width="1.51"/><path d="M1210,787L1220,985L1316,833Z" fill="#babbbd" stroke="#babbbd" stroke-width="1.51"/><path d="M1220,985L1230,1143L1328,1113Z" fill="#c6c8ca" stroke="#c6c8ca" stroke-width="1.51"/><path d="M1191,209L1203,399L1312,266Z" fill="#808796" stroke="#808796" stroke-width="1.51"/><path d="M1162,-75L1185,77L1316,-18Z" fill="#737886" stroke="#737886" stroke-width="1.51"/><path d="M1230,1143L1139,1312L1303,1285Z" fill="#cdcfd2" stroke="#cdcfd2" stroke-width="1.51"/><path d="M1184,727L1210,787L1302,742Z" fill="#afb1b5" stroke="#afb1b5" stroke-width="1.51"/><path d="M1045,717L1184,727L1202,560Z" fill="#a0a4ab" stroke="#a0a4ab" stroke-width="1.51"/><path d="M1191,209L1090,272L1203,399Z" fill="#7b8393" stroke="#7b8393" stroke-width="1.51"/><path d="M1036,410L1202,560L1203,399Z" fill="#8a919c" stroke="#8a919c" stroke-width="1.51"/><path d="M1210,787L1041,890L1220,985Z" fill="#b4b7ba" stroke="#b4b7ba" stroke-width="1.51"/><path d="M1005,1180L1139,1312L1230,1143Z" fill="#c4c7ca" stroke="#c4c7ca" stroke-width="1.51"/><path d="M1220,985L982,1042L1230,1143Z" fill="#bdbfc3" stroke="#bdbfc3" stroke-width="1.51"/><path d="M982,1042L1005,1180L1230,1143Z" fill="#bbbec3" stroke="#bbbec3" stroke-width="1.51"/><path d="M1162,-75L1085,63L1185,77Z" fill="#6f7584" stroke="#6f7584" stroke-width="1.51"/><path d="M1041,890L982,1042L1220,985Z" fill="#b4b7bb" stroke="#b4b7bb" stroke-width="1.51"/><path d="M1068,-253L1162,-75L1218,-172Z" fill="#686d7b" stroke="#686d7b" stroke-width="1.51"/><path d="M1185,77L1085,63L1191,209Z" fill="#737a89" stroke="#737a89" stroke-width="1.51"/><path d="M1036,410L982,518L1202,560Z" fill="#89909c" stroke="#89909c" stroke-width="1.51"/><path d="M1090,272L1036,410L1203,399Z" fill="#7e8695" stroke="#7e8695" stroke-width="1.51"/><path d="M1184,727L1045,717L1210,787Z" fill="#a8abb0" stroke="#a8abb0" stroke-width="1.51"/><path d="M1045,717L1041,890L1210,787Z" fill="#aaadb2" stroke="#aaadb2" stroke-width="1.51"/><path d="M1005,1180L1030,1291L1139,1312Z" fill="#c3c5ca" stroke="#c3c5ca" stroke-width="1.51"/><path d="M982,518L1045,717L1202,560Z" fill="#9499a3" stroke="#9499a3" stroke-width="1.51"/><path d="M1051,-59L1085,63L1162,-75Z" fill="#6a7080" stroke="#6a7080" stroke-width="1.51"/><path d="M1068,-253L1051,-59L1162,-75Z" fill="#666c7a" stroke="#666c7a" stroke-width="1.51"/><path d="M1085,63L1090,272L1191,209Z" fill="#737a8a" stroke="#737a8a" stroke-width="1.51"/><path d="M937,1245L706,1278L1030,1291Z" fill="#b6bac2" stroke="#b6bac2" stroke-width="1.51"/><path d="M918,-43L1051,-59L1068,-253Z" fill="#616777" stroke="#616777" stroke-width="1.51"/><path d="M871,-261L918,-43L1068,-253Z" fill="#5b6171" stroke="#5b6171" stroke-width="1.51"/><path d="M1051,-59L902,49L1085,63Z" fill="#656d7d" stroke="#656d7d" stroke-width="1.51"/><path d="M839,291L1036,410L1090,272Z" fill="#727b8c" stroke="#727b8c" stroke-width="1.51"/><path d="M1085,63L902,49L1090,272Z" fill="#6a7384" stroke="#6a7384" stroke-width="1.51"/><path d="M902,49L839,291L1090,272Z" fill="#677183" stroke="#677183" stroke-width="1.51"/><path d="M982,518L865,637L1045,717Z" fill="#8f949f" stroke="#8f949f" stroke-width="1.51"/><path d="M918,-43L902,49L1051,-59Z" fill="#616879" stroke="#616879" stroke-width="1.51"/><path d="M839,291L835,345L1036,410Z" fill="#6f788a" stroke="#6f788a" stroke-width="1.51"/><path d="M837,876L1041,890L1045,717Z" fill="#a4a8ae" stroke="#a4a8ae" stroke-width="1.51"/><path d="M982,1042L926,1118L1005,1180Z" fill="#b4b7be" stroke="#b4b7be" stroke-width="1.51"/><path d="M1005,1180L937,1245L1030,1291Z" fill="#bcbfc6" stroke="#bcbfc6" stroke-width="1.51"/><path d="M889,1041L982,1042L1041,890Z" fill="#acb0b7" stroke="#acb0b7" stroke-width="1.51"/><path d="M865,637L837,876L1045,717Z" fill="#989ca6" stroke="#989ca6" stroke-width="1.51"/><path d="M837,876L889,1041L1041,890Z" fill="#a6aab2" stroke="#a6aab2" stroke-width="1.51"/><path d="M401,-220L546,-174L871,-261Z" fill="#434b60" stroke="#434b60" stroke-width="1.51"/><path d="M886,511L982,518L1036,410Z" fill="#808896" stroke="#808896" stroke-width="1.51"/><path d="M835,345L886,511L1036,410Z" fill="#778090" stroke="#778090" stroke-width="1.51"/><path d="M785,685L837,876L865,637Z" fill="#9196a1" stroke="#9196a1" stroke-width="1.51"/><path d="M886,511L865,637L982,518Z" fill="#848b98" stroke="#848b98" stroke-width="1.51"/><path d="M926,1118L937,1245L1005,1180Z" fill="#b6bac1" stroke="#b6bac1" stroke-width="1.51"/><path d="M889,1041L926,1118L982,1042Z" fill="#aeb2b9" stroke="#aeb2b9" stroke-width="1.51"/><path d="M744,230L839,291L902,49Z" fill="#5f6a7e" stroke="#5f6a7e" stroke-width="1.51"/><path d="M725,145L744,230L902,49Z" fill="#5a6579" stroke="#5a6579" stroke-width="1.51"/><path d="M871,-261L726,-155L918,-43Z" fill="#545b6d" stroke="#545b6d" stroke-width="1.51"/><path d="M926,1118L722,1134L937,1245Z" fill="#aeb3bc" stroke="#aeb3bc" stroke-width="1.51"/><path d="M722,1134L706,1278L937,1245Z" fill="#acb1bb" stroke="#acb1bb" stroke-width="1.51"/><path d="M889,1041L722,1134L926,1118Z" fill="#a9aeb7" stroke="#a9aeb7" stroke-width="1.51"/><path d="M726,-11L902,49L918,-43Z" fill="#5a6275" stroke="#5a6275" stroke-width="1.51"/><path d="M726,-155L726,-11L918,-43Z" fill="#535c6f" stroke="#535c6f" stroke-width="1.51"/><path d="M546,-174L726,-155L871,-261Z" fill="#4a5366" stroke="#4a5366" stroke-width="1.51"/><path d="M835,345L725,441L886,511Z" fill="#717a8b" stroke="#717a8b" stroke-width="1.51"/><path d="M725,441L770,524L886,511Z" fill="#757e8e" stroke="#757e8e" stroke-width="1.51"/><path d="M770,524L865,637L886,511Z" fill="#7f8795" stroke="#7f8795" stroke-width="1.51"/><path d="M837,876L724,1027L889,1041Z" fill="#a1a6af" stroke="#a1a6af" stroke-width="1.51"/><path d="M726,-11L725,145L902,49Z" fill="#586175" stroke="#586175" stroke-width="1.51"/><path d="M291,1256L107,1299L591,1321Z" fill="#9a9fab" stroke="#9a9fab" stroke-width="1.51"/><path d="M785,685L746,873L837,876Z" fill="#959ba4" stroke="#959ba4" stroke-width="1.51"/><path d="M724,1027L722,1134L889,1041Z" fill="#a3a8b2" stroke="#a3a8b2" stroke-width="1.51"/><path d="M746,873L724,1027L837,876Z" fill="#9ba0a9" stroke="#9ba0a9" stroke-width="1.51"/><path d="M770,524L785,685L865,637Z" fill="#838a98" stroke="#838a98" stroke-width="1.51"/><path d="M744,230L835,345L839,291Z" fill="#626d81" stroke="#626d81" stroke-width="1.51"/><path d="M625,355L725,441L744,230Z" fill="#606b80" stroke="#606b80" stroke-width="1.51"/><path d="M744,230L725,441L835,345Z" fill="#646f83" stroke="#646f83" stroke-width="1.51"/><path d="M409,1255L291,1256L591,1321Z" fill="#9ca2ae" stroke="#9ca2ae" stroke-width="1.51"/><path d="M607,728L631,878L746,873Z" fill="#8e949f" stroke="#8e949f" stroke-width="1.51"/><path d="M770,524L581,559L785,685Z" fill="#7a8292" stroke="#7a8292" stroke-width="1.51"/><path d="M581,559L607,728L785,685Z" fill="#7d8494" stroke="#7d8494" stroke-width="1.51"/><path d="M607,728L746,873L785,685Z" fill="#8b929e" stroke="#8b929e" stroke-width="1.51"/><path d="M631,878L724,1027L746,873Z" fill="#969ba6" stroke="#969ba6" stroke-width="1.51"/><path d="M725,441L581,559L770,524Z" fill="#70798b" stroke="#70798b" stroke-width="1.51"/><path d="M563,109L725,145L726,-11Z" fill="#505c71" stroke="#505c71" stroke-width="1.51"/><path d="M726,-155L570,-75L726,-11Z" fill="#4c5569" stroke="#4c5569" stroke-width="1.51"/><path d="M725,145L592,256L744,230Z" fill="#556278" stroke="#556278" stroke-width="1.51"/><path d="M592,256L625,355L744,230Z" fill="#57647a" stroke="#57647a" stroke-width="1.51"/><path d="M534,1187L706,1278L722,1134Z" fill="#a1a8b4" stroke="#a1a8b4" stroke-width="1.51"/><path d="M551,1000L534,1187L722,1134Z" fill="#999fac" stroke="#999fac" stroke-width="1.51"/><path d="M551,1000L722,1134L724,1027Z" fill="#9aa0ac" stroke="#9aa0ac" stroke-width="1.51"/><path d="M631,878L551,1000L724,1027Z" fill="#939aa6" stroke="#939aa6" stroke-width="1.51"/><path d="M563,109L592,256L725,145Z" fill="#505d73" stroke="#505d73" stroke-width="1.51"/><path d="M625,355L581,559L725,441Z" fill="#677285" stroke="#677285" stroke-width="1.51"/><path d="M546,-174L570,-75L726,-155Z" fill="#465064" stroke="#465064" stroke-width="1.51"/><path d="M570,-75L563,109L726,-11Z" fill="#4b566b" stroke="#4b566b" stroke-width="1.51"/><path d="M534,1187L591,1321L706,1278Z" fill="#a2a8b5" stroke="#a2a8b5" stroke-width="1.51"/><path d="M563,109L482,225L592,256Z" fill="#4c5971" stroke="#4c5971" stroke-width="1.51"/><path d="M581,559L409,639L607,728Z" fill="#747c8d" stroke="#747c8d" stroke-width="1.51"/><path d="M404,438L581,559L625,355Z" fill="#616c80" stroke="#616c80" stroke-width="1.51"/><path d="M607,728L461,869L631,878Z" fill="#878e9b" stroke="#878e9b" stroke-width="1.51"/><path d="M461,869L551,1000L631,878Z" fill="#8b919f" stroke="#8b919f" stroke-width="1.51"/><path d="M592,256L482,225L625,355Z" fill="#515e76" stroke="#515e76" stroke-width="1.51"/><path d="M482,225L404,438L625,355Z" fill="#556278" stroke="#556278" stroke-width="1.51"/><path d="M397,35L563,109L570,-75Z" fill="#465168" stroke="#465168" stroke-width="1.51"/><path d="M404,438L399,512L581,559Z" fill="#646e81" stroke="#646e81" stroke-width="1.51"/><path d="M409,639L461,869L607,728Z" fill="#7d8593" stroke="#7d8593" stroke-width="1.51"/><path d="M406,1102L534,1187L551,1000Z" fill="#939aa7" stroke="#939aa7" stroke-width="1.51"/><path d="M414,1041L406,1102L551,1000Z" fill="#9096a2" stroke="#9096a2" stroke-width="1.51"/><path d="M421,-78L397,35L570,-75Z" fill="#434d63" stroke="#434d63" stroke-width="1.51"/><path d="M534,1187L409,1255L591,1321Z" fill="#9da3b0" stroke="#9da3b0" stroke-width="1.51"/><path d="M399,512L409,639L581,559Z" fill="#6b7486" stroke="#6b7486" stroke-width="1.51"/><path d="M546,-174L421,-78L570,-75Z" fill="#424c62" stroke="#424c62" stroke-width="1.51"/><path d="M397,35L482,225L563,109Z" fill="#49546b" stroke="#49546b" stroke-width="1.51"/><path d="M461,869L414,1041L551,1000Z" fill="#8c929f" stroke="#8c929f" stroke-width="1.51"/><path d="M401,-220L421,-78L546,-174Z" fill="#3f495d" stroke="#3f495d" stroke-width="1.51"/><path d="M406,1102L409,1255L534,1187Z" fill="#979daa" stroke="#979daa" stroke-width="1.51"/><path d="M409,639L243,798L461,869Z" fill="#7d8390" stroke="#7d8390" stroke-width="1.51"/><path d="M323,222L404,438L482,225Z" fill="#4e5b72" stroke="#4e5b72" stroke-width="1.51"/><path d="M397,35L323,222L482,225Z" fill="#48546a" stroke="#48546a" stroke-width="1.51"/><path d="M323,222L251,355L404,438Z" fill="#515c72" stroke="#515c72" stroke-width="1.51"/><path d="M266,1029L414,1041L461,869Z" fill="#8a909c" stroke="#8a909c" stroke-width="1.51"/><path d="M243,798L266,1029L461,869Z" fill="#858a96" stroke="#858a96" stroke-width="1.51"/><path d="M232,115L323,222L397,35Z" fill="#455066" stroke="#455066" stroke-width="1.51"/><path d="M284,1091L291,1256L406,1102Z" fill="#9297a4" stroke="#9297a4" stroke-width="1.51"/><path d="M406,1102L291,1256L409,1255Z" fill="#969ba8" stroke="#969ba8" stroke-width="1.51"/><path d="M399,512L258,515L409,639Z" fill="#677081" stroke="#677081" stroke-width="1.51"/><path d="M239,649L243,798L409,639Z" fill="#747a89" stroke="#747a89" stroke-width="1.51"/><path d="M250,-44L397,35L421,-78Z" fill="#414b60" stroke="#414b60" stroke-width="1.51"/><path d="M297,-159L250,-44L421,-78Z" fill="#3f475c" stroke="#3f475c" stroke-width="1.51"/><path d="M401,-220L297,-159L421,-78Z" fill="#3e465b" stroke="#3e465b" stroke-width="1.51"/><path d="M174,-244L297,-159L401,-220Z" fill="#3a4256" stroke="#3a4256" stroke-width="1.51"/><path d="M258,515L239,649L409,639Z" fill="#6a7282" stroke="#6a7282" stroke-width="1.51"/><path d="M284,1091L406,1102L414,1041Z" fill="#8f95a1" stroke="#8f95a1" stroke-width="1.51"/><path d="M266,1029L284,1091L414,1041Z" fill="#8d929e" stroke="#8d929e" stroke-width="1.51"/><path d="M258,515L399,512L404,438Z" fill="#616a7d" stroke="#616a7d" stroke-width="1.51"/><path d="M251,355L258,515L404,438Z" fill="#5a6478" stroke="#5a6478" stroke-width="1.51"/><path d="M250,-44L232,115L397,35Z" fill="#414c61" stroke="#414c61" stroke-width="1.51"/><path d="M243,798L171,978L266,1029Z" fill="#848994" stroke="#848994" stroke-width="1.51"/><path d="M284,1091L97,1158L291,1256Z" fill="#9095a1" stroke="#9095a1" stroke-width="1.51"/><path d="M232,115L111,230L323,222Z" fill="#455066" stroke="#455066" stroke-width="1.51"/><path d="M177,351L251,355L323,222Z" fill="#4d576e" stroke="#4d576e" stroke-width="1.51"/><path d="M111,230L177,351L323,222Z" fill="#485369" stroke="#485369" stroke-width="1.51"/><path d="M131,838L171,978L243,798Z" fill="#80848f" stroke="#80848f" stroke-width="1.51"/><path d="M251,355L177,351L258,515Z" fill="#565f73" stroke="#565f73" stroke-width="1.51"/><path d="M185,-104L250,-44L297,-159Z" fill="#3c4559" stroke="#3c4559" stroke-width="1.51"/><path d="M174,-244L185,-104L297,-159Z" fill="#3a4255" stroke="#3a4255" stroke-width="1.51"/><path d="M97,1158L107,1299L291,1256Z" fill="#9397a2" stroke="#9397a2" stroke-width="1.51"/><path d="M266,1029L97,1158L284,1091Z" fill="#8c919c" stroke="#8c919c" stroke-width="1.51"/><path d="M239,649L79,713L243,798Z" fill="#737987" stroke="#737987" stroke-width="1.51"/><path d="M95,73L232,115L250,-44Z" fill="#40495e" stroke="#40495e" stroke-width="1.51"/><path d="M113,555L239,649L258,515Z" fill="#656d7d" stroke="#656d7d" stroke-width="1.51"/><path d="M177,351L113,555L258,515Z" fill="#5b6476" stroke="#5b6476" stroke-width="1.51"/><path d="M171,978L97,1158L266,1029Z" fill="#898d99" stroke="#898d99" stroke-width="1.51"/><path d="M79,713L131,838L243,798Z" fill="#787d89" stroke="#787d89" stroke-width="1.51"/><path d="M185,-104L95,73L250,-44Z" fill="#3e465a" stroke="#3e465a" stroke-width="1.51"/><path d="M113,555L79,713L239,649Z" fill="#6a7180" stroke="#6a7180" stroke-width="1.51"/><path d="M95,73L111,230L232,115Z" fill="#424c61" stroke="#424c61" stroke-width="1.51"/><path d="M-24,379L-26,487L113,555Z" fill="#585f71" stroke="#585f71" stroke-width="1.51"/><path d="M-17,963L97,1158L171,978Z" fill="#868a95" stroke="#868a95" stroke-width="1.51"/><path d="M-24,379L113,555L177,351Z" fill="#545d70" stroke="#545d70" stroke-width="1.51"/><path d="M31,-61L95,73L185,-104Z" fill="#3c4458" stroke="#3c4458" stroke-width="1.51"/><path d="M174,-244L8,-212L185,-104Z" fill="#373e51" stroke="#373e51" stroke-width="1.51"/><path d="M8,-212L31,-61L185,-104Z" fill="#383f52" stroke="#383f52" stroke-width="1.51"/><path d="M-17,963L-3,1144L97,1158Z" fill="#878b96" stroke="#878b96" stroke-width="1.51"/><path d="M131,838L-17,963L171,978Z" fill="#81848f" stroke="#81848f" stroke-width="1.51"/><path d="M111,230L-20,280L177,351Z" fill="#475267" stroke="#475267" stroke-width="1.51"/><path d="M-20,280L-24,379L177,351Z" fill="#4b5469" stroke="#4b5469" stroke-width="1.51"/><path d="M97,1158L34,1307L107,1299Z" fill="#9195a1" stroke="#9195a1" stroke-width="1.51"/><path d="M95,73L-64,111L111,230Z" fill="#40495e" stroke="#40495e" stroke-width="1.51"/><path d="M-37,713L79,713L113,555Z" fill="#6a707e" stroke="#6a707e" stroke-width="1.51"/><path d="M34,802L-17,963L131,838Z" fill="#7c808b" stroke="#7c808b" stroke-width="1.51"/><path d="M79,713L34,802L131,838Z" fill="#777b87" stroke="#777b87" stroke-width="1.51"/><path d="M-3,1144L34,1307L97,1158Z" fill="#8e919c" stroke="#8e919c" stroke-width="1.51"/><path d="M-64,111L-20,280L111,230Z" fill="#414b60" stroke="#414b60" stroke-width="1.51"/><path d="M-26,487L-37,713L113,555Z" fill="#626878" stroke="#626878" stroke-width="1.51"/><path d="M31,-61L-64,111L95,73Z" fill="#3c4559" stroke="#3c4559" stroke-width="1.51"/><path d="M-37,713L34,802L79,713Z" fill="#727682" stroke="#727682" stroke-width="1.51"/><path d="M-214,560L-37,713L-26,487Z" fill="#5f6574" stroke="#5f6574" stroke-width="1.51"/><path d="M-17,963L-119,1129L-3,1144Z" fill="#858893" stroke="#858893" stroke-width="1.51"/><path d="M-119,1129L-158,1305L-3,1144Z" fill="#8a8d97" stroke="#8a8d97" stroke-width="1.51"/><path d="M-150,64L-64,111L31,-61Z" fill="#3a4256" stroke="#3a4256" stroke-width="1.51"/><path d="M8,-212L-181,-186L31,-61Z" fill="#353b4e" stroke="#353b4e" stroke-width="1.51"/><path d="M-181,-186L-204,-69L31,-61Z" fill="#353b4d" stroke="#353b4d" stroke-width="1.51"/><path d="M-172,843L-17,963L34,802Z" fill="#7a7d88" stroke="#7a7d88" stroke-width="1.51"/><path d="M-37,713L-172,843L34,802Z" fill="#747782" stroke="#747782" stroke-width="1.51"/><path d="M-3,1144L-158,1305L34,1307Z" fill="#8e919c" stroke="#8e919c" stroke-width="1.51"/><path d="M-204,-69L-150,64L31,-61Z" fill="#373e52" stroke="#373e52" stroke-width="1.51"/><path d="M-174,1008L-119,1129L-17,963Z" fill="#81848e" stroke="#81848e" stroke-width="1.51"/><path d="M-214,560L-182,719L-37,713Z" fill="#666a78" stroke="#666a78" stroke-width="1.51"/><path d="M-64,111L-206,252L-20,280Z" fill="#3f495d" stroke="#3f495d" stroke-width="1.51"/><path d="M-116,343L-24,379L-20,280Z" fill="#495165" stroke="#495165" stroke-width="1.51"/><path d="M-182,719L-172,843L-37,713Z" fill="#6f737e" stroke="#6f737e" stroke-width="1.51"/><path d="M-116,343L-26,487L-24,379Z" fill="#4f5769" stroke="#4f5769" stroke-width="1.51"/><path d="M-206,252L-116,343L-20,280Z" fill="#434c61" stroke="#434c61" stroke-width="1.51"/><path d="M-172,843L-174,1008L-17,963Z" fill="#7c7e89" stroke="#7c7e89" stroke-width="1.51"/><path d="M-116,343L-214,560L-26,487Z" fill="#535a6b" stroke="#535a6b" stroke-width="1.51"/><path d="M-150,64L-206,252L-64,111Z" fill="#3c4458" stroke="#3c4458" stroke-width="1.51"/><path d="M-206,252L-214,560L-116,343Z" fill="#4b5265" stroke="#4b5265" stroke-width="1.51"/><path d="M-174,1008L-158,1305L-119,1129Z" fill="#868993" stroke="#868993" stroke-width="1.51"/><path d="M-174,1008L-214,560L-158,1305Z" fill="#7b7d88" stroke="#7b7d88" stroke-width="1.51"/><path d="M-204,-69L-206,252L-150,64Z" fill="#394154" stroke="#394154" stroke-width="1.51"/><path d="M-214,560L-174,1008L-172,843Z" fill="#73757f" stroke="#73757f" stroke-width="1.51"/><path d="M-182,719L-214,560L-172,843Z" fill="#696d79" stroke="#696d79" stroke-width="1.51"/><path d="M-214,560L-206,252L-204,-69Z" fill="#3e475b" stroke="#3e475b" stroke-width="1.51"/></svg>